<mxfile host="app.diagrams.net" agent="Mozilla/5.0 (Windows NT 10.0; Win64; x64) AppleWebKit/537.36 (KHTML, like Gecko) Chrome/141.0.0.0 Safari/537.36" version="28.2.8">
  <diagram name="Страница — 1" id="hx-aiWHdt3KnNm_lIYHR">
    <mxGraphModel dx="922" dy="929" grid="1" gridSize="10" guides="1" tooltips="1" connect="1" arrows="1" fold="1" page="1" pageScale="1" pageWidth="827" pageHeight="1169" math="0" shadow="0">
      <root>
        <mxCell id="0" />
        <mxCell id="1" parent="0" />
        <mxCell id="BulfaYz1pbFP4ULBnnNi-1" value="Мастер" style="shape=umlActor;verticalLabelPosition=bottom;verticalAlign=top;html=1;outlineConnect=0;" vertex="1" parent="1">
          <mxGeometry x="510" y="170" width="30" height="60" as="geometry" />
        </mxCell>
        <mxCell id="BulfaYz1pbFP4ULBnnNi-2" value="Адмистратор" style="shape=umlActor;verticalLabelPosition=bottom;verticalAlign=top;html=1;outlineConnect=0;" vertex="1" parent="1">
          <mxGeometry x="560" y="410" width="30" height="60" as="geometry" />
        </mxCell>
        <mxCell id="BulfaYz1pbFP4ULBnnNi-4" value="Гость&lt;div&gt;&lt;br&gt;&lt;/div&gt;" style="shape=umlActor;verticalLabelPosition=bottom;verticalAlign=top;html=1;outlineConnect=0;" vertex="1" parent="1">
          <mxGeometry x="160" y="190" width="30" height="60" as="geometry" />
        </mxCell>
        <mxCell id="BulfaYz1pbFP4ULBnnNi-5" value="Клиент&lt;div&gt;&lt;br&gt;&lt;/div&gt;" style="shape=umlActor;verticalLabelPosition=bottom;verticalAlign=top;html=1;outlineConnect=0;" vertex="1" parent="1">
          <mxGeometry x="160" y="440" width="30" height="60" as="geometry" />
        </mxCell>
        <mxCell id="BulfaYz1pbFP4ULBnnNi-6" value="" style="endArrow=none;html=1;rounded=0;" edge="1" parent="1" target="BulfaYz1pbFP4ULBnnNi-7">
          <mxGeometry width="50" height="50" relative="1" as="geometry">
            <mxPoint x="200" y="200" as="sourcePoint" />
            <mxPoint x="220" y="170" as="targetPoint" />
          </mxGeometry>
        </mxCell>
        <mxCell id="BulfaYz1pbFP4ULBnnNi-7" value="&lt;font&gt;Просмотр&lt;/font&gt;" style="ellipse;whiteSpace=wrap;html=1;" vertex="1" parent="1">
          <mxGeometry x="250" y="140" width="100" height="60" as="geometry" />
        </mxCell>
        <mxCell id="BulfaYz1pbFP4ULBnnNi-10" value="" style="endArrow=none;html=1;rounded=0;" edge="1" parent="1" target="BulfaYz1pbFP4ULBnnNi-11">
          <mxGeometry width="50" height="50" relative="1" as="geometry">
            <mxPoint x="200" y="230" as="sourcePoint" />
            <mxPoint x="240" y="240" as="targetPoint" />
          </mxGeometry>
        </mxCell>
        <mxCell id="BulfaYz1pbFP4ULBnnNi-11" value="&lt;font&gt;Регистрация&lt;/font&gt;" style="ellipse;whiteSpace=wrap;html=1;" vertex="1" parent="1">
          <mxGeometry x="250" y="210" width="100" height="60" as="geometry" />
        </mxCell>
        <mxCell id="BulfaYz1pbFP4ULBnnNi-13" value="" style="endArrow=none;html=1;rounded=0;" edge="1" parent="1" target="BulfaYz1pbFP4ULBnnNi-14">
          <mxGeometry width="50" height="50" relative="1" as="geometry">
            <mxPoint x="200" y="250" as="sourcePoint" />
            <mxPoint x="240" y="310" as="targetPoint" />
          </mxGeometry>
        </mxCell>
        <mxCell id="BulfaYz1pbFP4ULBnnNi-14" value="&lt;font&gt;Авторизация&lt;/font&gt;" style="ellipse;whiteSpace=wrap;html=1;" vertex="1" parent="1">
          <mxGeometry x="250" y="280" width="100" height="60" as="geometry" />
        </mxCell>
        <mxCell id="BulfaYz1pbFP4ULBnnNi-17" value="&lt;font&gt;Просмотр главной страницы&lt;/font&gt;" style="ellipse;whiteSpace=wrap;html=1;" vertex="1" parent="1">
          <mxGeometry x="170" y="50" width="100" height="60" as="geometry" />
        </mxCell>
        <mxCell id="BulfaYz1pbFP4ULBnnNi-18" value="" style="endArrow=open;html=1;rounded=0;dashed=1;exitX=0.278;exitY=0.061;exitDx=0;exitDy=0;endFill=0;exitPerimeter=0;" edge="1" parent="1" source="BulfaYz1pbFP4ULBnnNi-7" target="BulfaYz1pbFP4ULBnnNi-17">
          <mxGeometry width="50" height="50" relative="1" as="geometry">
            <mxPoint x="220" y="180" as="sourcePoint" />
            <mxPoint x="270" y="130" as="targetPoint" />
          </mxGeometry>
        </mxCell>
        <mxCell id="BulfaYz1pbFP4ULBnnNi-42" value="&amp;lt;&amp;lt;include&amp;gt;&amp;gt;" style="edgeLabel;html=1;align=center;verticalAlign=middle;resizable=0;points=[];" vertex="1" connectable="0" parent="BulfaYz1pbFP4ULBnnNi-18">
          <mxGeometry x="0.1773" relative="1" as="geometry">
            <mxPoint as="offset" />
          </mxGeometry>
        </mxCell>
        <mxCell id="BulfaYz1pbFP4ULBnnNi-19" value="" style="endArrow=open;html=1;rounded=0;dashed=1;endFill=0;entryX=0.32;entryY=0.908;entryDx=0;entryDy=0;exitX=0.703;exitY=-0.008;exitDx=0;exitDy=0;exitPerimeter=0;entryPerimeter=0;" edge="1" parent="1" source="BulfaYz1pbFP4ULBnnNi-7" target="BulfaYz1pbFP4ULBnnNi-20">
          <mxGeometry width="50" height="50" relative="1" as="geometry">
            <mxPoint x="350" y="110" as="sourcePoint" />
            <mxPoint x="356" y="120" as="targetPoint" />
          </mxGeometry>
        </mxCell>
        <mxCell id="BulfaYz1pbFP4ULBnnNi-43" value="&amp;lt;&amp;lt;include&amp;gt;&amp;gt;" style="edgeLabel;html=1;align=center;verticalAlign=middle;resizable=0;points=[];" vertex="1" connectable="0" parent="BulfaYz1pbFP4ULBnnNi-19">
          <mxGeometry x="-0.3353" y="1" relative="1" as="geometry">
            <mxPoint x="10" y="-7" as="offset" />
          </mxGeometry>
        </mxCell>
        <mxCell id="BulfaYz1pbFP4ULBnnNi-20" value="&lt;font&gt;Просмотр контактной информации&lt;/font&gt;" style="ellipse;whiteSpace=wrap;html=1;" vertex="1" parent="1">
          <mxGeometry x="314" y="50" width="100" height="60" as="geometry" />
        </mxCell>
        <mxCell id="BulfaYz1pbFP4ULBnnNi-22" value="" style="endArrow=classic;html=1;rounded=0;" edge="1" parent="1">
          <mxGeometry width="50" height="50" relative="1" as="geometry">
            <mxPoint x="175" y="430" as="sourcePoint" />
            <mxPoint x="174.71" y="290" as="targetPoint" />
          </mxGeometry>
        </mxCell>
        <mxCell id="BulfaYz1pbFP4ULBnnNi-24" value="&lt;font&gt;Создание заявки&lt;/font&gt;" style="ellipse;whiteSpace=wrap;html=1;" vertex="1" parent="1">
          <mxGeometry x="240" y="370" width="100" height="60" as="geometry" />
        </mxCell>
        <mxCell id="BulfaYz1pbFP4ULBnnNi-26" value="&lt;font&gt;Просмотр заявок&lt;/font&gt;" style="ellipse;whiteSpace=wrap;html=1;" vertex="1" parent="1">
          <mxGeometry x="240" y="460" width="100" height="60" as="geometry" />
        </mxCell>
        <mxCell id="BulfaYz1pbFP4ULBnnNi-27" value="&lt;font&gt;Завершение заявки&lt;/font&gt;" style="ellipse;whiteSpace=wrap;html=1;" vertex="1" parent="1">
          <mxGeometry x="260" y="540" width="100" height="60" as="geometry" />
        </mxCell>
        <mxCell id="BulfaYz1pbFP4ULBnnNi-28" value="" style="endArrow=none;html=1;rounded=0;" edge="1" parent="1" target="BulfaYz1pbFP4ULBnnNi-24">
          <mxGeometry width="50" height="50" relative="1" as="geometry">
            <mxPoint x="200" y="440" as="sourcePoint" />
            <mxPoint x="230" y="310" as="targetPoint" />
          </mxGeometry>
        </mxCell>
        <mxCell id="BulfaYz1pbFP4ULBnnNi-29" value="" style="endArrow=none;html=1;rounded=0;entryX=0;entryY=0.5;entryDx=0;entryDy=0;" edge="1" parent="1" target="BulfaYz1pbFP4ULBnnNi-26">
          <mxGeometry width="50" height="50" relative="1" as="geometry">
            <mxPoint x="200" y="470" as="sourcePoint" />
            <mxPoint x="230" y="310" as="targetPoint" />
          </mxGeometry>
        </mxCell>
        <mxCell id="BulfaYz1pbFP4ULBnnNi-30" value="" style="endArrow=none;html=1;rounded=0;entryX=0;entryY=0;entryDx=0;entryDy=0;" edge="1" parent="1" target="BulfaYz1pbFP4ULBnnNi-27">
          <mxGeometry width="50" height="50" relative="1" as="geometry">
            <mxPoint x="200" y="500" as="sourcePoint" />
            <mxPoint x="230" y="310" as="targetPoint" />
          </mxGeometry>
        </mxCell>
        <mxCell id="BulfaYz1pbFP4ULBnnNi-35" value="&lt;font&gt;Просмотр назначенных заявок&lt;/font&gt;" style="ellipse;whiteSpace=wrap;html=1;" vertex="1" parent="1">
          <mxGeometry x="580" y="120" width="100" height="60" as="geometry" />
        </mxCell>
        <mxCell id="BulfaYz1pbFP4ULBnnNi-36" value="" style="endArrow=none;html=1;rounded=0;" edge="1" parent="1" target="BulfaYz1pbFP4ULBnnNi-35">
          <mxGeometry width="50" height="50" relative="1" as="geometry">
            <mxPoint x="540" y="170" as="sourcePoint" />
            <mxPoint x="570" y="20" as="targetPoint" />
          </mxGeometry>
        </mxCell>
        <mxCell id="BulfaYz1pbFP4ULBnnNi-39" value="Обновление статуса заявки" style="ellipse;whiteSpace=wrap;html=1;" vertex="1" parent="1">
          <mxGeometry x="590" y="200" width="100" height="60" as="geometry" />
        </mxCell>
        <mxCell id="BulfaYz1pbFP4ULBnnNi-40" value="" style="endArrow=none;html=1;rounded=0;" edge="1" parent="1" target="BulfaYz1pbFP4ULBnnNi-39" source="BulfaYz1pbFP4ULBnnNi-1">
          <mxGeometry width="50" height="50" relative="1" as="geometry">
            <mxPoint x="550" y="250" as="sourcePoint" />
            <mxPoint x="580" y="100" as="targetPoint" />
          </mxGeometry>
        </mxCell>
        <mxCell id="BulfaYz1pbFP4ULBnnNi-45" value="" style="endArrow=open;html=1;rounded=0;dashed=1;endFill=0;entryX=1;entryY=0.5;entryDx=0;entryDy=0;exitX=0.012;exitY=0.728;exitDx=0;exitDy=0;exitPerimeter=0;" edge="1" parent="1" source="BulfaYz1pbFP4ULBnnNi-47" target="BulfaYz1pbFP4ULBnnNi-26">
          <mxGeometry width="50" height="50" relative="1" as="geometry">
            <mxPoint x="420" y="520" as="sourcePoint" />
            <mxPoint x="380" y="540" as="targetPoint" />
          </mxGeometry>
        </mxCell>
        <mxCell id="BulfaYz1pbFP4ULBnnNi-46" value="&amp;lt;&amp;lt;extend&amp;gt;&amp;gt;" style="edgeLabel;html=1;align=center;verticalAlign=middle;resizable=0;points=[];" vertex="1" connectable="0" parent="BulfaYz1pbFP4ULBnnNi-45">
          <mxGeometry x="-0.3353" y="1" relative="1" as="geometry">
            <mxPoint x="-1" y="-3" as="offset" />
          </mxGeometry>
        </mxCell>
        <mxCell id="BulfaYz1pbFP4ULBnnNi-47" value="&lt;font&gt;Просмотр статуса заявки&lt;/font&gt;" style="ellipse;whiteSpace=wrap;html=1;" vertex="1" parent="1">
          <mxGeometry x="400" y="410" width="100" height="60" as="geometry" />
        </mxCell>
        <mxCell id="BulfaYz1pbFP4ULBnnNi-48" value="" style="endArrow=open;html=1;rounded=0;dashed=1;endFill=0;entryX=0;entryY=0.5;entryDx=0;entryDy=0;exitX=0.995;exitY=0.7;exitDx=0;exitDy=0;exitPerimeter=0;" edge="1" parent="1" target="BulfaYz1pbFP4ULBnnNi-50" source="BulfaYz1pbFP4ULBnnNi-26">
          <mxGeometry width="50" height="50" relative="1" as="geometry">
            <mxPoint x="420" y="560" as="sourcePoint" />
            <mxPoint x="456" y="540" as="targetPoint" />
          </mxGeometry>
        </mxCell>
        <mxCell id="BulfaYz1pbFP4ULBnnNi-49" value="&amp;lt;&amp;lt;include&amp;gt;&amp;gt;" style="edgeLabel;html=1;align=center;verticalAlign=middle;resizable=0;points=[];" vertex="1" connectable="0" parent="BulfaYz1pbFP4ULBnnNi-48">
          <mxGeometry x="-0.3353" y="1" relative="1" as="geometry">
            <mxPoint x="1" y="1" as="offset" />
          </mxGeometry>
        </mxCell>
        <mxCell id="BulfaYz1pbFP4ULBnnNi-50" value="&lt;font&gt;Фильтрация&lt;/font&gt;" style="ellipse;whiteSpace=wrap;html=1;" vertex="1" parent="1">
          <mxGeometry x="410" y="500" width="100" height="60" as="geometry" />
        </mxCell>
        <mxCell id="BulfaYz1pbFP4ULBnnNi-56" value="" style="endArrow=open;html=1;rounded=0;dashed=1;endFill=0;entryX=0;entryY=0.5;entryDx=0;entryDy=0;exitX=0.603;exitY=0.061;exitDx=0;exitDy=0;exitPerimeter=0;" edge="1" parent="1" target="BulfaYz1pbFP4ULBnnNi-58">
          <mxGeometry width="50" height="50" relative="1" as="geometry">
            <mxPoint x="610" y="119.99999999999997" as="sourcePoint" />
            <mxPoint x="685.7" y="86.34" as="targetPoint" />
          </mxGeometry>
        </mxCell>
        <mxCell id="BulfaYz1pbFP4ULBnnNi-57" value="&amp;lt;&amp;lt;include&amp;gt;&amp;gt;" style="edgeLabel;html=1;align=center;verticalAlign=middle;resizable=0;points=[];" vertex="1" connectable="0" parent="BulfaYz1pbFP4ULBnnNi-56">
          <mxGeometry x="-0.3353" y="1" relative="1" as="geometry">
            <mxPoint x="-9" y="-5" as="offset" />
          </mxGeometry>
        </mxCell>
        <mxCell id="BulfaYz1pbFP4ULBnnNi-58" value="&lt;font&gt;Фильтрация&lt;/font&gt;" style="ellipse;whiteSpace=wrap;html=1;" vertex="1" parent="1">
          <mxGeometry x="670" y="60" width="100" height="60" as="geometry" />
        </mxCell>
        <mxCell id="BulfaYz1pbFP4ULBnnNi-61" value="" style="endArrow=open;html=1;rounded=0;dashed=1;endFill=0;entryX=1;entryY=0.5;entryDx=0;entryDy=0;exitX=-0.023;exitY=0.422;exitDx=0;exitDy=0;exitPerimeter=0;" edge="1" parent="1" source="BulfaYz1pbFP4ULBnnNi-63" target="BulfaYz1pbFP4ULBnnNi-39">
          <mxGeometry width="50" height="50" relative="1" as="geometry">
            <mxPoint x="695.14" y="446.8500000000001" as="sourcePoint" />
            <mxPoint x="650" y="270" as="targetPoint" />
          </mxGeometry>
        </mxCell>
        <mxCell id="BulfaYz1pbFP4ULBnnNi-62" value="&amp;lt;&amp;lt;extend&amp;gt;&amp;gt;" style="edgeLabel;html=1;align=center;verticalAlign=middle;resizable=0;points=[];" vertex="1" connectable="0" parent="BulfaYz1pbFP4ULBnnNi-61">
          <mxGeometry x="-0.3353" y="1" relative="1" as="geometry">
            <mxPoint x="-2" y="-5" as="offset" />
          </mxGeometry>
        </mxCell>
        <mxCell id="BulfaYz1pbFP4ULBnnNi-63" value="&lt;font&gt;Добавление комментариев&lt;/font&gt;" style="ellipse;whiteSpace=wrap;html=1;" vertex="1" parent="1">
          <mxGeometry x="739.7" y="230.0000000000001" width="94.64" height="60" as="geometry" />
        </mxCell>
        <mxCell id="BulfaYz1pbFP4ULBnnNi-64" value="&lt;font&gt;Просмотр всех заявок&lt;/font&gt;" style="ellipse;whiteSpace=wrap;html=1;" vertex="1" parent="1">
          <mxGeometry x="590" y="309.99999999999994" width="100" height="60" as="geometry" />
        </mxCell>
        <mxCell id="BulfaYz1pbFP4ULBnnNi-65" value="" style="endArrow=open;html=1;rounded=0;dashed=1;endFill=0;entryX=0;entryY=0.5;entryDx=0;entryDy=0;" edge="1" parent="1" target="BulfaYz1pbFP4ULBnnNi-67" source="BulfaYz1pbFP4ULBnnNi-64">
          <mxGeometry width="50" height="50" relative="1" as="geometry">
            <mxPoint x="720.3" y="408.65999999999997" as="sourcePoint" />
            <mxPoint x="796" y="375" as="targetPoint" />
          </mxGeometry>
        </mxCell>
        <mxCell id="BulfaYz1pbFP4ULBnnNi-66" value="&amp;lt;&amp;lt;include&amp;gt;&amp;gt;" style="edgeLabel;html=1;align=center;verticalAlign=middle;resizable=0;points=[];" vertex="1" connectable="0" parent="BulfaYz1pbFP4ULBnnNi-65">
          <mxGeometry x="-0.3353" y="1" relative="1" as="geometry">
            <mxPoint x="1" y="-5" as="offset" />
          </mxGeometry>
        </mxCell>
        <mxCell id="BulfaYz1pbFP4ULBnnNi-67" value="&lt;font&gt;Фильтрация&lt;/font&gt;" style="ellipse;whiteSpace=wrap;html=1;" vertex="1" parent="1">
          <mxGeometry x="748" y="310" width="100" height="60" as="geometry" />
        </mxCell>
        <mxCell id="BulfaYz1pbFP4ULBnnNi-68" value="" style="endArrow=none;html=1;rounded=0;entryX=0.037;entryY=0.672;entryDx=0;entryDy=0;entryPerimeter=0;" edge="1" parent="1" source="BulfaYz1pbFP4ULBnnNi-2" target="BulfaYz1pbFP4ULBnnNi-64">
          <mxGeometry width="50" height="50" relative="1" as="geometry">
            <mxPoint x="670" y="520" as="sourcePoint" />
            <mxPoint x="720" y="470" as="targetPoint" />
          </mxGeometry>
        </mxCell>
        <mxCell id="BulfaYz1pbFP4ULBnnNi-69" value="" style="endArrow=none;html=1;rounded=0;exitX=0;exitY=0;exitDx=0;exitDy=0;" edge="1" parent="1" source="BulfaYz1pbFP4ULBnnNi-70" target="BulfaYz1pbFP4ULBnnNi-2">
          <mxGeometry width="50" height="50" relative="1" as="geometry">
            <mxPoint x="700" y="520" as="sourcePoint" />
            <mxPoint x="620" y="450" as="targetPoint" />
          </mxGeometry>
        </mxCell>
        <mxCell id="BulfaYz1pbFP4ULBnnNi-70" value="&lt;font&gt;Назначение мастеров&lt;/font&gt;" style="ellipse;whiteSpace=wrap;html=1;" vertex="1" parent="1">
          <mxGeometry x="660" y="440" width="100" height="60" as="geometry" />
        </mxCell>
        <mxCell id="BulfaYz1pbFP4ULBnnNi-74" value="" style="endArrow=none;html=1;rounded=0;exitX=0;exitY=0;exitDx=0;exitDy=0;" edge="1" parent="1" source="BulfaYz1pbFP4ULBnnNi-75" target="BulfaYz1pbFP4ULBnnNi-2">
          <mxGeometry width="50" height="50" relative="1" as="geometry">
            <mxPoint x="740" y="609.5" as="sourcePoint" />
            <mxPoint x="610" y="460" as="targetPoint" />
          </mxGeometry>
        </mxCell>
        <mxCell id="BulfaYz1pbFP4ULBnnNi-75" value="&lt;font&gt;Управление пользователями&lt;/font&gt;" style="ellipse;whiteSpace=wrap;html=1;" vertex="1" parent="1">
          <mxGeometry x="620" y="500" width="100" height="60" as="geometry" />
        </mxCell>
        <mxCell id="BulfaYz1pbFP4ULBnnNi-80" value="" style="endArrow=open;html=1;rounded=0;dashed=1;endFill=0;entryX=0;entryY=0.5;entryDx=0;entryDy=0;exitX=0.998;exitY=0.617;exitDx=0;exitDy=0;exitPerimeter=0;" edge="1" parent="1" target="BulfaYz1pbFP4ULBnnNi-82" source="BulfaYz1pbFP4ULBnnNi-75">
          <mxGeometry width="50" height="50" relative="1" as="geometry">
            <mxPoint x="800" y="629" as="sourcePoint" />
            <mxPoint x="861" y="600" as="targetPoint" />
          </mxGeometry>
        </mxCell>
        <mxCell id="BulfaYz1pbFP4ULBnnNi-81" value="&amp;lt;&amp;lt;include&amp;gt;&amp;gt;" style="edgeLabel;html=1;align=center;verticalAlign=middle;resizable=0;points=[];" vertex="1" connectable="0" parent="BulfaYz1pbFP4ULBnnNi-80">
          <mxGeometry x="-0.3353" y="1" relative="1" as="geometry">
            <mxPoint x="5" y="1" as="offset" />
          </mxGeometry>
        </mxCell>
        <mxCell id="BulfaYz1pbFP4ULBnnNi-82" value="Блокировка" style="ellipse;whiteSpace=wrap;html=1;" vertex="1" parent="1">
          <mxGeometry x="790" y="540" width="100" height="60" as="geometry" />
        </mxCell>
        <mxCell id="BulfaYz1pbFP4ULBnnNi-83" value="" style="endArrow=open;html=1;rounded=0;dashed=1;endFill=0;entryX=0;entryY=0;entryDx=0;entryDy=0;exitX=0.757;exitY=0.867;exitDx=0;exitDy=0;exitPerimeter=0;" edge="1" parent="1" target="BulfaYz1pbFP4ULBnnNi-85" source="BulfaYz1pbFP4ULBnnNi-75">
          <mxGeometry width="50" height="50" relative="1" as="geometry">
            <mxPoint x="746.3100000000002" y="600.3599999999999" as="sourcePoint" />
            <mxPoint x="821.3299999999999" y="660" as="targetPoint" />
          </mxGeometry>
        </mxCell>
        <mxCell id="BulfaYz1pbFP4ULBnnNi-84" value="&amp;lt;&amp;lt;include&amp;gt;&amp;gt;" style="edgeLabel;html=1;align=center;verticalAlign=middle;resizable=0;points=[];" vertex="1" connectable="0" parent="BulfaYz1pbFP4ULBnnNi-83">
          <mxGeometry x="-0.3353" y="1" relative="1" as="geometry">
            <mxPoint x="5" y="1" as="offset" />
          </mxGeometry>
        </mxCell>
        <mxCell id="BulfaYz1pbFP4ULBnnNi-85" value="Добавление" style="ellipse;whiteSpace=wrap;html=1;" vertex="1" parent="1">
          <mxGeometry x="679.9999999999999" y="590" width="100" height="60" as="geometry" />
        </mxCell>
        <mxCell id="BulfaYz1pbFP4ULBnnNi-86" value="&lt;font&gt;Управление списком услуг&lt;/font&gt;" style="ellipse;whiteSpace=wrap;html=1;" vertex="1" parent="1">
          <mxGeometry x="510" y="570" width="100" height="60" as="geometry" />
        </mxCell>
        <mxCell id="BulfaYz1pbFP4ULBnnNi-87" value="" style="endArrow=none;html=1;rounded=0;exitX=0.437;exitY=0.019;exitDx=0;exitDy=0;exitPerimeter=0;" edge="1" parent="1" source="BulfaYz1pbFP4ULBnnNi-86">
          <mxGeometry width="50" height="50" relative="1" as="geometry">
            <mxPoint x="670" y="520" as="sourcePoint" />
            <mxPoint x="590" y="490" as="targetPoint" />
          </mxGeometry>
        </mxCell>
        <mxCell id="BulfaYz1pbFP4ULBnnNi-88" value="" style="endArrow=open;html=1;rounded=0;dashed=1;endFill=0;exitX=0.728;exitY=0.95;exitDx=0;exitDy=0;exitPerimeter=0;" edge="1" parent="1" target="BulfaYz1pbFP4ULBnnNi-90" source="BulfaYz1pbFP4ULBnnNi-86">
          <mxGeometry width="50" height="50" relative="1" as="geometry">
            <mxPoint x="564" y="647" as="sourcePoint" />
            <mxPoint x="642" y="670" as="targetPoint" />
          </mxGeometry>
        </mxCell>
        <mxCell id="BulfaYz1pbFP4ULBnnNi-89" value="&amp;lt;&amp;lt;include&amp;gt;&amp;gt;" style="edgeLabel;html=1;align=center;verticalAlign=middle;resizable=0;points=[];" vertex="1" connectable="0" parent="BulfaYz1pbFP4ULBnnNi-88">
          <mxGeometry x="-0.3353" y="1" relative="1" as="geometry">
            <mxPoint x="5" y="1" as="offset" />
          </mxGeometry>
        </mxCell>
        <mxCell id="BulfaYz1pbFP4ULBnnNi-90" value="Удаление услуги" style="ellipse;whiteSpace=wrap;html=1;" vertex="1" parent="1">
          <mxGeometry x="620" y="640" width="100" height="60" as="geometry" />
        </mxCell>
        <mxCell id="BulfaYz1pbFP4ULBnnNi-91" value="" style="endArrow=open;html=1;rounded=0;dashed=1;endFill=0;" edge="1" parent="1" target="BulfaYz1pbFP4ULBnnNi-93" source="BulfaYz1pbFP4ULBnnNi-86">
          <mxGeometry width="50" height="50" relative="1" as="geometry">
            <mxPoint x="540" y="662" as="sourcePoint" />
            <mxPoint x="602.3299999999999" y="730" as="targetPoint" />
          </mxGeometry>
        </mxCell>
        <mxCell id="BulfaYz1pbFP4ULBnnNi-92" value="&amp;lt;&amp;lt;include&amp;gt;&amp;gt;" style="edgeLabel;html=1;align=center;verticalAlign=middle;resizable=0;points=[];" vertex="1" connectable="0" parent="BulfaYz1pbFP4ULBnnNi-91">
          <mxGeometry x="-0.3353" y="1" relative="1" as="geometry">
            <mxPoint x="5" y="1" as="offset" />
          </mxGeometry>
        </mxCell>
        <mxCell id="BulfaYz1pbFP4ULBnnNi-93" value="Добавление услуги" style="ellipse;whiteSpace=wrap;html=1;" vertex="1" parent="1">
          <mxGeometry x="439.9999999999999" y="650" width="100" height="60" as="geometry" />
        </mxCell>
      </root>
    </mxGraphModel>
  </diagram>
</mxfile>
